<?xml version="1.0" encoding="utf-8"?>
<!-- Generator: Adobe Illustrator 26.0.1, SVG Export Plug-In . SVG Version: 6.00 Build 0)  -->
<svg version="1.1" id="圖層_1" xmlns="http://www.w3.org/2000/svg" xmlns:xlink="http://www.w3.org/1999/xlink" x="0px" y="0px"
	 viewBox="0 0 243 85" style="enable-background:new 0 0 243 85;" xml:space="preserve">
<style type="text/css">
	.st0{display:none;}
	.st1{fill:#9ED8F5;}
	.st2{fill:#034EA1;}
	.st3{fill:#004097;}
	.st4{fill:#EC1C24;}
</style>
<g>
	<g id="圖層_3_1_" class="st0">
	</g>
	<g id="圖層_4_1_">
		<g>
			<g>
				<polygon class="st1" points="88.2,50.3 92.2,50.3 92.2,53.7 88.2,53.7 88.2,50.3 88.2,50.3 88.2,50.3 88.2,50.3 				"/>
				<polygon class="st1" points="92.8,54 96.7,54 96.7,57.5 92.8,57.5 92.8,54 92.8,54 92.8,54 92.8,54 				"/>
				<polygon class="st1" points="96.7,38.6 100.6,38.6 100.6,42 96.7,42 96.7,38.6 96.7,38.6 96.7,38.6 96.7,38.6 				"/>
				<polygon class="st1" points="104.5,30.9 108.3,30.9 108.3,34.3 104.5,34.3 104.5,30.9 104.5,30.9 104.5,30.9 104.5,30.9 				"/>
				<polygon class="st1" points="100.6,27 104.4,27 104.4,30.4 100.6,30.4 100.6,27 100.6,27 100.6,27 100.6,27 				"/>
			</g>
			<path class="st1" d="M113.8,17.3c0,0-2.2-4-11.2-4.1c0,0-12.5,0.6-25,10.8c0,0-3,2.2-6.8,5.9c-1.7,1.6-3.4,3.2-4.4,4.6l0,0l0,0
				l0,0l0,0l0,0h0.1l0,0l0,0l0,0l0,0l0,0c-2.2,2.6-4.5,5.6-6.5,8.8l0,0l0,0l0,0l0,0l0,0h-0.1l-0.2,0.5l0,0l0,0l0,0l0,0l0,0
				c-1.1,1.8-1.9,3.6-2.8,5.6l0,0l0,0l0,0l0,0l0,0l0,0l0,0l0,0l0,0l0,0l0,0c0,0-5.7,12.7-0.2,19.9c0,0,3.7,5,13.5,3.7
				c0,0,12.2-1.5,21.8-9.6l0,0l0,0l0,0l0,0l0,0v-5.2h-4v-3.9h-3.9v-4.7h3.8v-4.2H92v-6.9h-4v-4.5h4.6v3.8h3.7v-3.7h4.1V31h-4.1v-4.7
				h3.7v-3.4h4.6v3.4h4.1v4.2h7.4l0,0l0,0l0,0l0,0l0,0C116,30.4,118.4,22.2,113.8,17.3L113.8,17.3L113.8,17.3L113.8,17.3L113.8,17.3
				L113.8,17.3L113.8,17.3L113.8,17.3L113.8,17.3L113.8,17.3L113.8,17.3z"/>
		</g>
	</g>
	<g id="Layer_2_1_">
		<g>
			<polygon class="st2" points="216,39.1 214.3,39.1 213.3,37 217.6,37 221,33.2 226.3,33.1 221,39.1 213.8,53.8 208.9,53.7 			"/>
			<polygon id="XMLID_6_" class="st2" points="221.2,33.6 217.8,37.5 214,37.5 214.6,38.9 216.7,38.9 209.5,53.4 213.5,53.4 
				220.7,38.9 225.4,33.6 			"/>
			<polygon class="st2" points="224.9,39.1 222.9,39.1 221.4,37 225.9,37 227.4,33.9 232.6,32.7 230.7,37 232.1,37 235,33.5 
				239.6,33.5 236.6,37 237.8,37 239.2,39.1 229.7,39.1 224.3,51.2 234,51.3 234.9,53.6 218.4,53.6 			"/>
			<polygon id="XMLID_5_" class="st2" points="238.5,38.9 237.6,37.5 235.7,37.5 238.6,34 235.2,34 232.3,37.5 230.1,37.5 
				231.9,33.3 227.7,34.3 226.2,37.5 222.2,37.5 223.1,38.9 225.6,38.9 219,53.2 234.3,53.2 233.7,51.8 223.7,51.8 229.4,38.9 			
				"/>
			<path class="st2" d="M181.4,53.6l7.4-14.5h-3.7l-1.3-2.1h6.1l1.5-3l4.6-1.2L194,37h3.1l1.7-3.3l4.9-1.2l-2.2,4.5h3.4l1.7-3.3
				l4.9-1.2l-2.2,4.5h2.4l1.3,2.1h-4.8l-5.2,10.2h-12.2l5.4-10.2h-3l-6.2,12.3l18.1,0l1.3,2.2H181.4L181.4,53.6z M199.4,47.2
				l4.2-8.1h-3.3l-4.1,8.1H199.4z"/>
			<path id="XMLID_4_" class="st2" d="M211.2,37.3h-2.8l2.1-4.2l-3.8,0.9l-1.7,3.3h-4.3l2.1-4.2L199,34l-1.7,3.3h-4l2-3.9l-3.5,0.9
				l-1.5,3h-5.6l0.8,1.4h4.1l-7.4,14.5h23.2l-0.8-1.4l-18.6,0l6.6-13.2h4l-5.3,10.3h11.3l5.2-10.3h4.4L211.2,37.3z M199.6,47.7h-4.1
				l4.5-8.9h4.3L199.6,47.7z"/>
			<polygon class="st2" points="162,53.7 162,53.6 161.9,53.6 167.9,43.4 166.3,43.4 158.1,53.6 147.4,53.6 149.6,51.5 154.9,51.5 
				161.3,43.4 155,43.4 153.8,41.3 160.1,41.3 156.6,34 161.4,34 164.9,41.3 165.1,41.3 168.8,33.5 175.1,32.4 170.3,41.3 171,41.3 
				178.2,34 183.4,34 176.2,41.3 180.5,41.3 181.5,43.4 172.5,43.4 167.9,51.5 177.1,51.5 178,53.8 			"/>
			<polygon id="XMLID_3_" class="st2" points="180.8,43.1 180.2,41.6 175.2,41.6 182.3,34.4 178.3,34.4 171.2,41.6 169.6,41.6 
				174.3,32.9 169.1,33.8 165.3,41.6 164.6,41.6 161.1,34.5 157.3,34.5 160.8,41.6 154.5,41.6 155.2,43.1 162.1,43.1 155.1,51.8 
				149.8,51.8 148.4,53.2 157.9,53.2 166.1,43.1 168.6,43.1 162.7,53.2 162.7,53.2 162.7,53.2 177.4,53.2 176.8,51.8 167.2,51.8 
				172.3,43.1 			"/>
		</g>
		<g>
			<g>
				<polygon class="st3" points="45.3,34.2 45.3,41.4 33.3,41.4 33.3,34.2 25.6,34.2 25.6,53 33.3,53 33.3,45 45.3,45 45.3,53 
					53,53 53,34.2 45.3,34.2 45.3,34.2 45.3,34.2 45.3,34.2 				"/>
				<polygon class="st3" points="58.8,39.2 58.8,53 66.2,53 66.2,39.2 58.8,39.2 58.8,39.2 58.8,39.2 58.8,39.2 				"/>
				<polygon class="st3" points="91.8,34.2 91.8,45.6 79.3,34.2 71.9,34.2 71.9,53 79.2,53 79.3,41.9 91.6,53 99.2,53 99.2,34.2 
					91.8,34.2 91.8,34.2 91.8,34.2 91.8,34.2 				"/>
				<path class="st3" d="M115.2,53.3c0.2,0,0.2,0,0.3,0c2.7,0,5.1-0.4,7-1.1c1.8-0.7,3.1-1.6,3.9-3l0,0l0,0l0,0l0,0l0,0l0.2-0.2
					l-0.6-0.1l-6.3-0.6l-0.6-0.1l-0.2,0.2l0,0l0,0l0,0l0,0l0,0c-0.2,0.5-0.5,0.9-0.9,1.2c-0.6,0.3-1.4,0.6-2.5,0.6
					c-0.1,0-0.2,0-0.3-0.1l0,0V53.3L115.2,53.3L115.2,53.3L115.2,53.3z M115.2,47.4h11.1h0.4v-0.2l0,0l0,0l0,0l0,0l0,0
					c0-2.4-0.7-4.2-2.3-5.6c-2-1.7-5.1-2.6-9.2-2.6l0,0v3.2l0,0c0,0,0,0,0.1,0l0,0l0,0l0,0l0,0l0,0l0,0l0,0l0,0l0,0l0,0
					c1.3,0,2.3,0.2,3,0.6c0.7,0.5,1.1,1.1,1.1,1.9l0,0l0,0l0,0l0,0l0,0h-4.2L115.2,47.4L115.2,47.4L115.2,47.4z M114.8,38.9
					L114.8,38.9L114.8,38.9L114.8,38.9L114.8,38.9L114.8,38.9L114.8,38.9L114.8,38.9L114.8,38.9L114.8,38.9L114.8,38.9L114.8,38.9
					L114.8,38.9L114.8,38.9c0.1,0,0.2,0,0.3,0l0,0v3.2l0,0c-1.2,0-2.3,0.2-3,0.8c-0.7,0.4-1.1,1-1.2,1.8l0,0l0,0l0,0l0,0l0,0h4.2
					v2.7h-4.3l0,0l0,0l0,0l0,0l0,0c0.1,0.7,0.5,1.4,1.2,1.8c0.8,0.6,1.8,0.9,3.1,0.9l0,0v3.2l0,0c-1.9,0-3.4-0.2-4.8-0.5
					c-2.6-0.6-4.4-1.5-5.6-2.9c-0.5-0.6-1-1.2-1.2-1.9c-0.2-0.7-0.2-1.3-0.2-1.8c0-2,0.8-3.7,2.6-5
					C108.1,39.7,111.1,38.9,114.8,38.9z"/>
				<path class="st3" d="M143.3,52.4l-0.5-2.7l-0.1-0.3l-0.6,0.1h-0.3h-0.1l0,0l0,0l0,0l0,0l0,0l0,0c-0.5,0.2-0.8,0.2-1.1,0.2l0,0
					l0,0l0,0l0,0l0,0l0,0h0l0,0l0,0l0,0l0,0l0,0c-0.2,0-0.6,0.1-1,0.1c-1,0-1-0.2-1-0.3c-0.1-0.4-0.2-1-0.2-2l0,0l0,0l0,0l0,0l0,0
					v-5h4.3v-3.3h-4.3v-5.1h-7.5l0,0v5.1h-2.9v3.3h2.9V48l0,0l0,0l0,0l0,0l0,0c0,1.1,0.1,1.9,0.2,2.4c0.1,0.5,0.4,0.9,0.8,1.4
					c0.5,0.5,1.3,0.8,2.6,1.2c1,0.2,2.1,0.3,3.3,0.3c0.5,0,1.2-0.1,2.3-0.2c1.2,0,2.2-0.2,2.9-0.4l0,0l0,0l0,0l0,0l0,0l0.3-0.1V52.4
					L143.3,52.4L143.3,52.4L143.3,52.4L143.3,52.4L143.3,52.4z"/>
				<path class="st4" d="M62.3,38c2.3,0,4-1.8,4-4c0-2.2-1.7-3.9-4-3.9c-2.1,0-3.9,1.7-3.9,3.9C58.5,36.2,60.2,38,62.3,38L62.3,38
					L62.3,38L62.3,38L62.3,38L62.3,38L62.3,38L62.3,38L62.3,38L62.3,38L62.3,38z"/>
			</g>
		</g>
	</g>
	<g id="Designed_by_Vecteezy_1_">
	</g>
</g>
</svg>
