<svg xmlns="http://www.w3.org/2000/svg" viewBox="0 0 534.3 111.04"><defs><style>.cls-1{fill:#172a88;}.cls-2{fill:#f39800;}</style></defs><path class="cls-1" d="M342.91,955.51a6.74,6.74,0,0,1-6.84,6.7H288.89a20.84,20.84,0,0,0,19.69,14.09,26.88,26.88,0,0,0,15.32-4.52c3.14-2,7.38-.13,9,3.15s-.13,7-3.28,9c-9,6-16,5.88-21.06,5.88a34.33,34.33,0,1,1,0-68.66C325.13,921.18,342.91,933.22,342.91,955.51Zm-54-6.84h39.52c-2.87-9.57-11.62-13.95-19.83-13.95A20.9,20.9,0,0,0,288.89,948.67Z" transform="translate(-173.68 -878.93)"/><path class="cls-1" d="M419.48,956.06v26.8a6.61,6.61,0,0,1-6.84,6.84,7.21,7.21,0,0,1-6.57-6.84c-5.87,4.92-12.44,6.84-20.23,6.84-19.29,0-34.6-14.36-34.6-33.64a34.38,34.38,0,0,1,34.6-34.6C405.12,921.46,419.48,936.78,419.48,956.06Zm-13.41,0c0-11.49-8.75-21.2-20.23-21.2a21.49,21.49,0,0,0-21.2,21.2c0,11.49,9.71,20.24,21.2,20.24A19.85,19.85,0,0,0,406.07,956.06Z" transform="translate(-173.68 -878.93)"/><path class="cls-1" d="M468.84,928a6.86,6.86,0,0,1-6.84,6.84,20.78,20.78,0,0,0-20.79,20.79v27.49a6.77,6.77,0,1,1-13.54,0V955.65A34.36,34.36,0,0,1,462,921.32,6.74,6.74,0,0,1,468.84,928Z" transform="translate(-173.68 -878.93)"/><path class="cls-1" d="M468.42,955.51a34.33,34.33,0,1,1,34.32,34.33A34.35,34.35,0,0,1,468.42,955.51Zm13.54,0a20.79,20.79,0,1,0,20.78-20.79A20.87,20.87,0,0,0,482,955.51Z" transform="translate(-173.68 -878.93)"/><path class="cls-1" d="M600.24,928v34.46a27.69,27.69,0,0,1-55.38,0V928a6.77,6.77,0,0,1,13.54,0v34.19a14.15,14.15,0,1,0,28.3,0V928a6.77,6.77,0,0,1,13.54,0Z" transform="translate(-173.68 -878.93)"/><path class="cls-1" d="M609.24,921.32V894a6.77,6.77,0,0,1,13.54,0v27.35h9.71a6.74,6.74,0,0,1,6.84,6.7,6.86,6.86,0,0,1-6.84,6.84h-9.71v48.28a6.77,6.77,0,1,1-13.54,0V921.32Z" transform="translate(-173.68 -878.93)"/><path class="cls-1" d="M708,955.51a6.74,6.74,0,0,1-6.84,6.7H654a20.84,20.84,0,0,0,19.7,14.09A26.84,26.84,0,0,0,689,971.78c3.15-2,7.39-.13,9,3.15s-.14,7-3.29,9c-9,6-16,5.88-21.05,5.88a34.33,34.33,0,1,1,0-68.66C690.2,921.18,708,933.22,708,955.51Zm-54-6.84h39.53c-2.88-9.57-11.63-13.95-19.83-13.95A20.91,20.91,0,0,0,654,948.67Z" transform="translate(-173.68 -878.93)"/><rect class="cls-1" y="0.84" width="32.94" height="110.2" rx="16.47"/><rect class="cls-2" x="65.75" width="32.94" height="48.02" rx="16.47"/><path class="cls-1" d="M262.79,986.08h0a16.53,16.53,0,0,1-23.16-2.56l-62.35-77a16.52,16.52,0,0,1,2.56-23.15h0A16.52,16.52,0,0,1,203,885.93l62.35,77A16.52,16.52,0,0,1,262.79,986.08Z" transform="translate(-173.68 -878.93)"/></svg>