<svg version="1.0" id="レイヤー_1" xmlns="http://www.w3.org/2000/svg" x="0" y="0" width="156" height="57" xml:space="preserve"><path fill="#007BC2" d="M.063 26.985c0 16.712 13.657 29.636 29.671 29.636 16.012 0 29.671-12.924 29.671-29.636 0-15.327-10.668-26.5-22.482-26.5-2.686 0-5.329.58-7.189 1.345-1.861-.765-4.507-1.345-7.188-1.345C10.729.485.063 11.658.063 26.985m34.957-7.694c0 3.246-2.143 5.804-5.285 5.804-3.14 0-5.285-2.558-5.285-5.804 0-4.426 3.008-8.354 5.285-9.705 2.278 1.352 5.285 5.279 5.285 9.705zM7.358 26.843c0-11.534 8.323-19.415 14.864-19.122-3.1 3.088-4.978 7.587-4.978 11.937 0 7.489 5.942 12.74 12.49 12.74 6.545 0 12.491-5.251 12.491-12.74 0-4.35-1.878-8.849-4.978-11.937 6.541-.293 14.865 7.588 14.865 19.122 0 12.627-10.132 22.479-22.377 22.479-12.246-.001-22.377-9.852-22.377-22.479z"/><path fill="#231F20" d="M86.961 12.657v5.867h3.277v10.789l-8.802-16.656H71.277v5.867h3.276v17.951h-3.276v5.864h13.436v-5.864h-3.277v-10.79l8.802 16.654h6.883V18.524h3.275v-5.867H86.961M128.312 24.057V12.656h-25.838v11.401h5.866v-5.534h3.157v17.951h-4.285v5.861h16.363v-5.861h-4.286V18.523h3.159v5.534h5.864M156.151 24.057V12.656h-25.835v11.401h5.862v-5.534h3.158v17.951h-4.284v5.861h16.359v-5.861h-4.282V18.523h3.156v5.534h5.866"/></svg>