<svg version="1.1" id="Layer_1" xmlns="http://www.w3.org/2000/svg" xmlns:xlink="http://www.w3.org/1999/xlink" x="0" y="0" width="200" height="65" xml:space="preserve"><path fill="#C1C2C2" d="M61.187 34.724H46.829v-14.37h14.358v14.37zM46.391 49.506H32.033V35.15h14.358v14.356zm14.796 0H46.829V35.15h14.358v14.356zm-29.591 0H17.241V35.15h14.355v14.356zm0-14.798H17.241V20.353h14.353l.002 14.355zm14.795.016H32.033v-14.37h14.358v14.37zM61.63 19.916H16.801v30.033H61.63V19.916z"/><path fill="#E9E8E9" d="M75.985 20.355h.44v14.354h-.44z"/><defs><path id="SVGID_1_" d="M9.626 49.523H16.8v.427H9.626z"/></defs><clipPath id="SVGID_2_"><use xlink:href="#SVGID_1_" overflow="visible"/></clipPath><linearGradient id="SVGID_3_" gradientUnits="userSpaceOnUse" x1="-124.674" y1="374.303" x2="-123.182" y2="374.303" gradientTransform="matrix(-5.9615 0 0 5.9615 -725.586 -2181.68)"><stop offset="0" style="stop-color:#c1c2c2"/><stop offset=".1" style="stop-color:#c1c2c2"/><stop offset=".223" style="stop-color:#d8d8d7"/><stop offset=".357" style="stop-color:#ebebea"/><stop offset=".491" style="stop-color:#f8f8f8"/><stop offset=".624" style="stop-color:#fff"/><stop offset="1" style="stop-color:#fff"/></linearGradient><path clip-path="url('#SVGID_2_')" fill="url('#SVGID_3_')" d="M9.626 49.523h7.173v.426H9.626z"/><defs><path id="SVGID_4_" d="M46.392 49.947h.441v14.355h-.441z"/></defs><clipPath id="SVGID_5_"><use xlink:href="#SVGID_4_" overflow="visible"/></clipPath><linearGradient id="SVGID_6_" gradientUnits="userSpaceOnUse" x1="-79.861" y1="341.473" x2="-78.368" y2="341.473" gradientTransform="matrix(0 8.9471 8.9471 0 -3008.575 763.593)"><stop offset="0" style="stop-color:#c1c2c2"/><stop offset=".1" style="stop-color:#c1c2c2"/><stop offset=".496" style="stop-color:#dadad9"/><stop offset="1" style="stop-color:#fafafa"/></linearGradient><path clip-path="url('#SVGID_5_')" fill="url('#SVGID_6_')" d="M46.394 49.949h.44v14.354h-.44z"/><defs><path id="SVGID_7_" d="M75.985 34.715h.44v14.791h-.44z"/></defs><clipPath id="SVGID_8_"><use xlink:href="#SVGID_7_" overflow="visible"/></clipPath><linearGradient id="SVGID_9_" gradientUnits="userSpaceOnUse" x1="-80.422" y1="342.565" x2="-78.93" y2="342.565" gradientTransform="matrix(0 8.9471 8.9471 0 -2988.738 753.393)"><stop offset="0" style="stop-color:#e9e8e9"/><stop offset=".1" style="stop-color:#e9e8e9"/><stop offset=".661" style="stop-color:#ebeaea"/><stop offset=".892" style="stop-color:#f2f1f1"/><stop offset="1" style="stop-color:#fafafa"/></linearGradient><path clip-path="url('#SVGID_8_')" fill="url('#SVGID_9_')" d="M75.985 34.715h.44v14.791h-.44z"/><defs><path id="SVGID_10_" d="M31.591 12.75h.444v7.165h-.444z"/></defs><clipPath id="SVGID_11_"><use xlink:href="#SVGID_10_" overflow="visible"/></clipPath><linearGradient id="SVGID_12_" gradientUnits="userSpaceOnUse" x1="-151.825" y1="313.945" x2="-150.333" y2="313.945" gradientTransform="matrix(0 -5.9618 -5.9618 0 1903.502 -884.368)"><stop offset="0" style="stop-color:#c1c2c2"/><stop offset=".1" style="stop-color:#c1c2c2"/><stop offset=".223" style="stop-color:#d8d8d7"/><stop offset=".357" style="stop-color:#ebebea"/><stop offset=".491" style="stop-color:#f8f8f8"/><stop offset=".624" style="stop-color:#fff"/><stop offset="1" style="stop-color:#fff"/></linearGradient><path clip-path="url('#SVGID_11_')" fill="url('#SVGID_12_')" d="M31.589 12.751h.448v7.163h-.448z"/><defs><path id="SVGID_13_" d="M61.187.258h.443v19.657h-.443z"/></defs><clipPath id="SVGID_14_"><use xlink:href="#SVGID_13_" overflow="visible"/></clipPath><linearGradient id="SVGID_15_" gradientUnits="userSpaceOnUse" x1="-128.566" y1="322.043" x2="-127.073" y2="322.043" gradientTransform="matrix(0 -13.1313 -13.1313 0 4290.256 -1668.337)"><stop offset="0" style="stop-color:#c1c2c2"/><stop offset=".1" style="stop-color:#c1c2c2"/><stop offset=".41" style="stop-color:#c4c4c4"/><stop offset=".606" style="stop-color:#cbcbcb"/><stop offset=".771" style="stop-color:#d8d8d8"/><stop offset=".918" style="stop-color:#ececeb"/><stop offset="1" style="stop-color:#fff"/></linearGradient><path clip-path="url('#SVGID_14_')" fill="url('#SVGID_15_')" d="M61.187.258h.443v19.656h-.443z"/><defs><path id="SVGID_16_" d="M46.394 12.752h.442v7.162h-.442z"/></defs><clipPath id="SVGID_17_"><use xlink:href="#SVGID_16_" overflow="visible"/></clipPath><linearGradient id="SVGID_18_" gradientUnits="userSpaceOnUse" x1="-151.822" y1="313.128" x2="-150.331" y2="313.128" gradientTransform="matrix(0 -5.9623 -5.9623 0 1913.58 -884.42)"><stop offset="0" style="stop-color:#c1c2c2"/><stop offset=".1" style="stop-color:#c1c2c2"/><stop offset=".168" style="stop-color:#d0d0d0"/><stop offset=".277" style="stop-color:#e3e2e2"/><stop offset=".401" style="stop-color:#f1f0f0"/><stop offset=".552" style="stop-color:#fbfafa"/><stop offset=".809" style="stop-color:#fff"/><stop offset="1" style="stop-color:#fff"/></linearGradient><path clip-path="url('#SVGID_17_')" fill="url('#SVGID_18_')" d="M46.394 12.752h.442v7.162h-.442z"/><defs><path id="SVGID_19_" d="M31.596 64.305h15.237v.439H31.596z"/></defs><clipPath id="SVGID_20_"><use xlink:href="#SVGID_19_" overflow="visible"/></clipPath><linearGradient id="SVGID_21_" gradientUnits="userSpaceOnUse" x1="-99.495" y1="303.019" x2="-98.003" y2="303.019" gradientTransform="matrix(9.8891 0 0 -9.8891 1015.954 3061.13)"><stop offset="0" style="stop-color:#d3d3d3"/><stop offset=".1" style="stop-color:#d3d3d3"/><stop offset=".122" style="stop-color:#d4d4d4"/><stop offset="1" style="stop-color:#fafafa"/></linearGradient><path clip-path="url('#SVGID_20_')" fill="url('#SVGID_21_')" d="M31.596 64.305h15.237v.439H31.596z"/><path fill="#D3D3D3" d="M16.8 64.305h15.237v.439H16.8z"/><defs><path id="SVGID_22_" d="M61.187 19.915h15.24v.438h-15.24z"/></defs><clipPath id="SVGID_23_"><use xlink:href="#SVGID_22_" overflow="visible"/></clipPath><linearGradient id="SVGID_24_" gradientUnits="userSpaceOnUse" x1="-98.851" y1="305.31" x2="-97.358" y2="305.31" gradientTransform="matrix(10.2114 0 0 -10.2114 1070.934 3137.79)"><stop offset="0" style="stop-color:#c1c2c2"/><stop offset=".47" style="stop-color:#c3c3c3"/><stop offset=".656" style="stop-color:#c9c9c9"/><stop offset=".791" style="stop-color:#d4d4d3"/><stop offset=".901" style="stop-color:#e4e3e3"/><stop offset=".995" style="stop-color:#fdfcfc"/><stop offset="1" style="stop-color:#fff"/></linearGradient><path clip-path="url('#SVGID_23_')" fill="url('#SVGID_24_')" d="M61.187 19.915h15.239v.438H61.187z"/><defs><path id="SVGID_25_" d="M61.187 34.718h15.24v.435h-15.24z"/></defs><clipPath id="SVGID_26_"><use xlink:href="#SVGID_25_" overflow="visible"/></clipPath><linearGradient id="SVGID_27_" gradientUnits="userSpaceOnUse" x1="-98.851" y1="304.832" x2="-97.358" y2="304.832" gradientTransform="matrix(10.2114 0 0 -10.2114 1070.926 3147.704)"><stop offset="0" style="stop-color:#c1c2c2"/><stop offset=".1" style="stop-color:#c1c2c2"/><stop offset=".124" style="stop-color:#c6c6c6"/><stop offset=".228" style="stop-color:#d5d5d5"/><stop offset=".355" style="stop-color:#e0e0e0"/><stop offset=".533" style="stop-color:#e7e7e7"/><stop offset="1" style="stop-color:#e9e8e9"/></linearGradient><path clip-path="url('#SVGID_26_')" fill="url('#SVGID_27_')" d="M61.187 34.718h15.239v.435H61.187z"/><defs><path id="SVGID_28_" d="M61.187 49.508h15.24v.442h-15.24z"/></defs><clipPath id="SVGID_29_"><use xlink:href="#SVGID_28_" overflow="visible"/></clipPath><linearGradient id="SVGID_30_" gradientUnits="userSpaceOnUse" x1="-98.851" y1="304.353" x2="-97.358" y2="304.353" gradientTransform="matrix(10.2114 0 0 -10.2114 1070.926 3157.618)"><stop offset="0" style="stop-color:#c1c2c2"/><stop offset=".44" style="stop-color:#dadad9"/><stop offset="1" style="stop-color:#fafafa"/></linearGradient><path clip-path="url('#SVGID_29_')" fill="url('#SVGID_30_')" d="M61.187 49.509h15.239v.44H61.187z"/><defs><path id="SVGID_31_" d="M67.625 19.916h15.247v.438H67.625z"/></defs><clipPath id="SVGID_32_"><use xlink:href="#SVGID_31_" overflow="visible"/></clipPath><linearGradient id="SVGID_33_" gradientUnits="userSpaceOnUse" x1="-98.649" y1="305.324" x2="-97.157" y2="305.324" gradientTransform="matrix(10.2175 0 0 -10.2175 1075.901 3139.786)"><stop offset="0" style="stop-color:#e9e8e9"/><stop offset=".275" style="stop-color:#e9e8e9"/><stop offset=".706" style="stop-color:#ebeaea"/><stop offset=".887" style="stop-color:#f2f1f1"/><stop offset="1" style="stop-color:#fff"/></linearGradient><path clip-path="url('#SVGID_32_')" fill="url('#SVGID_33_')" d="M67.625 19.916h15.247v.437H67.625z"/><defs><path id="SVGID_34_" d="M2 34.718h14.8v.435H2z"/></defs><clipPath id="SVGID_35_"><use xlink:href="#SVGID_34_" overflow="visible"/></clipPath><linearGradient id="SVGID_36_" gradientUnits="userSpaceOnUse" x1="-118.669" y1="356.674" x2="-117.177" y2="356.674" gradientTransform="matrix(-9.7381 0 0 9.7381 -1138.805 -3438.38)"><stop offset="0" style="stop-color:#c1c2c2"/><stop offset=".386" style="stop-color:#c4c4c4"/><stop offset=".635" style="stop-color:#cbcbcb"/><stop offset=".844" style="stop-color:#d9d8d8"/><stop offset="1" style="stop-color:#e9e8e9"/></linearGradient><path clip-path="url('#SVGID_35_')" fill="url('#SVGID_36_')" d="M2.001 34.718h14.798v.435H2.001z"/><defs><path id="SVGID_37_" d="M16.8 19.915h.441v14.796H16.8z"/></defs><clipPath id="SVGID_38_"><use xlink:href="#SVGID_37_" overflow="visible"/></clipPath><linearGradient id="SVGID_39_" gradientUnits="userSpaceOnUse" x1="-131.859" y1="322.137" x2="-130.366" y2="322.137" gradientTransform="matrix(0 -11.4563 -11.4563 0 3707.518 -1474.353)"><stop offset="0" style="stop-color:#c1c2c2"/><stop offset=".49" style="stop-color:#c4c4c4"/><stop offset=".787" style="stop-color:#cbcbcb"/><stop offset="1" style="stop-color:#d5d5d6"/></linearGradient><path clip-path="url('#SVGID_38_')" fill="url('#SVGID_39_')" d="M16.8 19.915h.44v14.796h-.44z"/><defs><path id="SVGID_40_" d="M2.004 19.914h29.589v.44H2.004z"/></defs><clipPath id="SVGID_41_"><use xlink:href="#SVGID_40_" overflow="visible"/></clipPath><linearGradient id="SVGID_42_" gradientUnits="userSpaceOnUse" x1="-114.162" y1="343.01" x2="-112.669" y2="343.01" gradientTransform="matrix(-19.6958 0 0 19.6958 -2216.913 -6735.71)"><stop offset="0" style="stop-color:#c1c2c2"/><stop offset=".342" style="stop-color:#cbcbcb"/><stop offset=".936" style="stop-color:#e5e5e5"/><stop offset="1" style="stop-color:#e9e8e9"/></linearGradient><path clip-path="url('#SVGID_41_')" fill="url('#SVGID_42_')" d="M2.005 19.915h29.588v.44H2.005z"/><path fill="#E9E8E9" d="M2.004 19.913h.436v14.796h-.436z"/><defs><path id="SVGID_43_" d="M16.792 49.949h.449v14.795h-.449z"/></defs><clipPath id="SVGID_44_"><use xlink:href="#SVGID_43_" overflow="visible"/></clipPath><linearGradient id="SVGID_45_" gradientUnits="userSpaceOnUse" x1="-85.68" y1="338.353" x2="-84.188" y2="338.353" gradientTransform="matrix(0 11.1562 11.1562 0 -3757.717 1005.044)"><stop offset="0" style="stop-color:#c1c2c2"/><stop offset=".1" style="stop-color:#c1c2c2"/><stop offset=".588" style="stop-color:#c3c3c3"/><stop offset=".773" style="stop-color:#c9c9c9"/><stop offset=".9" style="stop-color:#d3d3d3"/><stop offset="1" style="stop-color:#d3d3d3"/></linearGradient><path clip-path="url('#SVGID_44_')" fill="url('#SVGID_45_')" d="M16.793 49.949h.448v14.795h-.448z"/><defs><path id="SVGID_46_" d="M31.597 49.949h.442v14.795h-.442z"/></defs><clipPath id="SVGID_47_"><use xlink:href="#SVGID_46_" overflow="visible"/></clipPath><linearGradient id="SVGID_48_" gradientUnits="userSpaceOnUse" x1="-86.289" y1="338.567" x2="-84.796" y2="338.567" gradientTransform="matrix(0 11.4516 11.4516 0 -3845.334 1037.321)"><stop offset="0" style="stop-color:#c1c2c2"/><stop offset=".1" style="stop-color:#c1c2c2"/><stop offset=".588" style="stop-color:#c3c3c3"/><stop offset=".773" style="stop-color:#c9c9c9"/><stop offset=".9" style="stop-color:#d3d3d3"/><stop offset="1" style="stop-color:#d3d3d3"/></linearGradient><path clip-path="url('#SVGID_47_')" fill="url('#SVGID_48_')" d="M31.597 49.949h.442v14.795h-.442z"/><path fill="#508FCC" d="M17.02 49.725h14.797v14.797H17.02z"/><path fill="#1D468B" d="M31.817 34.933h14.796v14.794H31.817z"/><path fill="#05A2A3" d="M46.613 34.933h14.796v14.794H46.613z"/><path fill="#E83736" d="M2.225 20.133h14.796v14.798H2.225z"/><path fill="#F39F1F" d="M46.613 20.133h14.796v14.798H46.613z"/><path fill="#F8BE33" d="M61.408 20.133h14.796v14.798H61.408z"/><path fill="#E83736" d="M61.408 5.338h14.796v14.795H61.408z"/><defs><path id="SVGID_49_" d="M2.001.256H198v64.488H2.001z"/></defs><clipPath id="SVGID_50_"><use xlink:href="#SVGID_49_" overflow="visible"/></clipPath><path clip-path="url('#SVGID_50_')" fill="#1D468B" d="m149.612 33.677 3.24-3.487c-1.668.53-4.021 1.163-6.053 1.163-5.154 0-6.619-2.796-6.607-5.142.018-3.678 3.15-7.321 8.103-7.321 3.126 0 4.665 1.193 5.454 2.028l2.064-4.475c-2.802-1.822-7.086-1.829-7.882-1.829-9.788 0-14.859 5.669-14.859 11.903 0 5.029 3.772 8.967 10.731 8.967 1.871 0 3.949-.568 4.787-.736l1.022-1.071z"/><path clip-path="url('#SVGID_50_')" fill="#1D468B" d="m130.508 33.677 3.241-3.487c-1.669.53-4.021 1.163-6.054 1.163-5.153 0-6.618-2.796-6.606-5.142.018-3.678 3.152-7.321 8.105-7.321 3.123 0 4.664 1.193 5.452 2.028l2.06-4.475c-2.8-1.822-7.082-1.829-7.877-1.829-9.788 0-14.859 5.669-14.859 11.903 0 5.029 3.771 8.967 10.733 8.967 1.866 0 3.946-.568 4.782-.736l1.023-1.071z"/><path clip-path="url('#SVGID_50_')" fill="#1D468B" d="M107.494 15.22H97.173l-6.12 19.728h7.216l2.022-6.401c1.165.169 2.589.335 4.04.335 1.963 0 4.833-.166 7.283-1.786 1.963-1.313 3.293-3.63 3.371-5.885.135-3.966-3.984-5.991-7.491-5.991m.179 6.957c-.222.771-1.184 2.168-3.146 2.336-.937.145-2.133.071-2.936-.182l1.416-4.695h2.393c1.254 0 2.756.848 2.273 2.541M176.429 34.926h-7.539l-.205-9.379-4.932 9.379h-8.408l.486-19.725h6.824l-.794 11.428 6.897-11.428h5.174l.76 11.496 5.21-11.496h7.343zM95.742 41.258h14.5l-1.102 1.41h-5.787l-.286.877H111.021l-1.372 4.213h-1.694l.911-2.81h-6.254l-1.172 3.601h-1.853l1.17-3.601h-6.271l-.925 2.81h-1.667l.913-2.81.457-1.403H101.214l.284-.877h-6.217zM100.821 50.463l-.296.913h4.827l.295-.913h-4.826zm-2.153.913.295-.913h-4.822l-.294.913h4.821zm1.155 2.159h4.824l.322-.989h-4.825l-.321.989zm-6.678 0h4.818l.323-.989h-4.82l-.321.989zm11.86 1.25h-5.59a6.964 6.964 0 0 0-.091.309c-.037.147-.063.305-.019.446.096.313.462.431 1.12.431h7l-1.1 1.402h-6.422c-1.891 0-2.257-.52-2.439-1.06-.097-.281-.092-.589-.049-.882.035-.246.089-.473.144-.646h-6.515l1.809-5.571H107.75l-1.813 5.571h-.932zM114.202 56.47h-1.684l1.904-5.864H120.709l-1.903 5.864h-4.604zm1.445-4.454-.988 3.045h2.918l.99-3.045h-2.92zM132.873 41.258l-4.529 13.936c-.327.953 1.163.984 1.784.98l-1.046 1.334s-3.419.269-2.562-2.42c.093-.285 2.863-8.806 4.006-12.327h-2.854a111.134 111.134 0 0 1-1.619 4.614h2.691l-1.178 1.508h-2.096c-1.243 3.133-2.781 6.467-4.343 8.49h-2.421c1.99-2.137 3.67-5.432 4.94-8.49h-1.452l.49-1.508h1.564a73.35 73.35 0 0 0 1.591-4.614h-1.657l.488-1.503h8.203zM143.829 46.043c.332.23.736.552 1.179.92a15.698 15.698 0 0 0 1.704-1.533h-5.035a14.393 14.393 0 0 1-3.987 4.843h-2.364c2.844-2.168 4.74-4.457 5.607-7.512h-2.17l.49-1.503h13.742l-.912 2.81H154.174l-.918 2.825c-.919 2.838-2.038 3.97-4.018 3.509l-1.17-1.911c1.036.539 2.18.604 2.649.055.245-.284.735-1.626.744-1.67l.484-1.445h-2.078l.867-2.669h-7.994c-.117.394-.266.833-.451 1.307h7.535c-1.063 1.544-2.43 2.857-3.697 3.88.896.816 1.779 1.691 2.338 2.325h-2.281a71.586 71.586 0 0 0-1.31-1.382c-1.084.766-1.951 1.244-2.259 1.382h-3.529c1.463-.46 3.181-1.374 4.714-2.424-.771-.704-1.333-1.1-2.253-1.806h2.282zM138.578 52.404l-1.193 3.65h2.347l1.183-3.65h-2.337zm12.722-1.19-.303.936.303-.936zm0 0-.303.936-.084.255-1.184 3.65h2.295l-1.027 1.316h-17.623l.435-1.316h1.806l1.58-4.841.041-.127h14.104l-.04.127zm-7.455 4.841 1.183-3.65h-2.339l-1.185 3.65h2.341zm2.955-3.651-1.186 3.65h2.344l1.184-3.65H146.8zM161.212 49.189c-.737 1.128-1.717 2.396-3.006 3.54h-2.187c2.411-2.065 4.099-4.224 4.845-5.552h-2.291l.526-1.622h3.293l.864-2.665h-2.889l.534-1.633H168.216l-1.274 1.633h-1.914l-.864 2.665h3.092l-1.269 1.622h-2.138a14.624 14.624 0 0 1 1.975 3.707h-1.748c-.351-.928-.662-1.604-.955-2.126l-2.797 8.614h-1.773l2.661-8.183z"/><path clip-path="url('#SVGID_50_')" fill="#1D468B" d="m176.429 41.258-3.299 10.16h2.348l-1.252 1.603h-1.618l-1.415 4.352h-1.851l1.417-4.352h-6.002l.519-1.603h6.002l3.303-10.16z"/><path clip-path="url('#SVGID_50_')" fill-rule="evenodd" clip-rule="evenodd" fill="#1D468B" d="M169.049 43.545h4.24l-1.226 1.566h-4.238zM167.805 47.376h4.238l-1.224 1.563h-4.24zM117.46 41.258h6.382l-1.103 1.41h-5.744zM116.067 43.545h7.651l-1.145 1.488h-6.999zM115.935 45.965h6.38l-1.101 1.41h-5.746zM115.19 48.252h6.383l-1.103 1.41h-5.742zM103.553 45.538h4.483l-.897 1.146h-4.484zM102.94 47.4h4.485l-.896 1.149h-4.483zM95.42 45.538h4.485l-.897 1.146h-4.487zM94.809 47.4h4.485l-.897 1.149h-4.485z"/><path clip-path="url('#SVGID_50_')" fill="#1D468B" d="M188.269 12.04c0-2.68 2.176-4.866 4.867-4.866s4.865 2.187 4.865 4.866-2.174 4.867-4.865 4.867-4.867-2.187-4.867-4.867m8.993 0c0-2.32-1.802-4.125-4.126-4.125-2.318 0-4.121 1.805-4.121 4.125 0 2.319 1.803 4.12 4.121 4.12 2.324 0 4.126-1.801 4.126-4.12m-4.031-2.932c1.67 0 2.031.935 2.031 1.705 0 .72-.505 1.37-1.369 1.539l1.248 2.837h-.818l-1.188-2.727h-1.192v2.727h-.743V9.108h2.031zm-1.365 2.69h.984c1.236 0 1.443-.432 1.443-.996 0-.781-.504-1.036-1.311-1.036h-1.117v2.032z"/></svg>