<?xml version="1.0" encoding="utf-8"?>
<!-- Generator: Adobe Illustrator 23.0.3, SVG Export Plug-In . SVG Version: 6.00 Build 0)  -->
<svg version="1.1" id="Layer_1" xmlns="http://www.w3.org/2000/svg" xmlns:xlink="http://www.w3.org/1999/xlink" x="0px" y="0px"
	 viewBox="0 0 39 36" style="enable-background:new 0 0 39 36;" xml:space="preserve">
<style type="text/css">
	.st0{fill:#3D85C6;}
</style>
<g>
	<g>
		<polygon class="st0" points="0.1,26.3 0.1,29.1 2.9,29.1 2.9,36 6.8,36 6.8,29.1 9.5,29.1 9.5,26.3 		"/>
		<polygon class="st0" points="18.9,26.3 18.9,29.1 21.7,29.1 21.7,36 25.6,36 25.6,29.1 28.3,29.1 28.3,26.3 		"/>
		<polygon class="st0" points="12.2,26.3 8.6,36 12.3,36 14.2,30.1 16.2,36 20,36 16.3,26.3 		"/>
		<polygon class="st0" points="31,26.3 27.4,36 31.1,36 33.1,30.1 35,36 38.8,36 35,26.3 		"/>
	</g>
	<g>
		<path class="st0" d="M14.7,19C9,17.6,4.8,14,4.8,9.7c0-0.5,0.1-1.1,0.2-1.6c2.8-0.8,10.1-1.9,11.5-1C17.4,7.7,15.7,14.7,14.7,19"
			/>
		<path class="st0" d="M33.8,8.2c0.1,0.5,0.2,1,0.2,1.6c0,4.3-4.2,7.9-9.9,9.2c-1-4.3-2.7-11.3-1.8-11.8C23.6,6.3,31,7.4,33.8,8.2"
			/>
		<path class="st0" d="M19.4,0c6.3,0,11.7,2.7,13.7,6.4c-2.3-0.4-13.2-3-13.1-0.8v13.9c-0.2,0-0.4,0-0.6,0c-0.2,0-0.4,0-0.7,0V5.6
			C18.9,3.4,8,6.1,5.7,6.4C7.7,2.7,13.1,0,19.4,0"/>
	</g>
</g>
</svg>
